<?xml version="1.0" standalone="no"?>
<!DOCTYPE svg PUBLIC "-//W3C//DTD SVG 20010904//EN"
 "http://www.w3.org/TR/2001/REC-SVG-20010904/DTD/svg10.dtd">
<svg version="1.0" xmlns="http://www.w3.org/2000/svg"
 width="221.000000pt" height="81.000000pt" viewBox="0 0 221.000000 81.000000"
 preserveAspectRatio="xMidYMid meet">

<g transform="translate(0.000000,81.000000) scale(0.100000,-0.100000)"
fill="#000000" stroke="none">
<path d="M40 700 l0 -80 95 0 95 0 0 -50 0 -50 100 0 100 0 0 50 0 50 90 0 90
0 0 80 0 80 -285 0 -285 0 0 -80z"/>
<path d="M730 650 l0 -130 100 0 100 0 0 50 0 50 55 0 c73 0 120 -21 146 -65
l21 -35 105 0 105 0 -7 28 c-14 58 -62 126 -116 164 -79 55 -143 68 -341 68
l-168 0 0 -130z"/>
<path d="M1472 758 c8 -13 45 -71 83 -130 l67 -108 198 0 197 0 81 130 81 130
-114 0 -114 0 -63 -115 c-35 -63 -66 -115 -70 -115 -3 0 -37 52 -74 115 l-67
115 -110 0 -109 0 14 -22z"/>
<path d="M253 494 c-23 -10 -15 -50 13 -62 28 -13 24 -32 -7 -32 -10 0 -19 -5
-19 -11 0 -6 14 -9 33 -7 43 4 50 39 13 63 -26 17 -26 38 -1 33 8 -2 15 2 17
7 3 11 -30 17 -49 9z"/>
<path d="M476 478 c-9 -12 -16 -29 -16 -38 0 -29 30 -60 59 -60 37 0 51 17 51
62 0 27 -5 40 -19 48 -31 16 -59 12 -75 -12z m64 -13 c7 -9 10 -25 6 -41 -9
-33 -49 -31 -54 4 -7 48 21 69 48 37z"/>
<path d="M730 440 l0 -60 35 0 c39 0 48 17 13 22 -20 3 -23 10 -26 51 -4 68
-22 58 -22 -13z"/>
<path d="M957 493 c-11 -10 -8 -72 3 -94 12 -22 59 -26 78 -7 14 14 16 108 2
108 -5 0 -10 -17 -10 -37 0 -46 -13 -68 -34 -60 -11 5 -16 19 -16 52 0 42 -7
54 -23 38z"/>
<path d="M1200 490 c0 -5 7 -10 15 -10 11 0 15 -12 15 -50 0 -38 4 -50 15 -50
11 0 15 12 15 50 0 38 4 50 15 50 8 0 15 5 15 10 0 6 -20 10 -45 10 -25 0 -45
-4 -45 -10z"/>
<path d="M1440 440 c0 -33 4 -60 10 -60 6 0 10 27 10 60 0 33 -4 60 -10 60 -6
0 -10 -27 -10 -60z"/>
<path d="M1636 478 c-9 -12 -16 -29 -16 -38 0 -29 30 -60 59 -60 37 0 51 17
51 62 0 27 -5 40 -19 48 -31 16 -59 12 -75 -12z m64 -13 c7 -9 10 -25 6 -41
-9 -33 -49 -31 -54 4 -7 48 21 69 48 37z"/>
<path d="M1890 440 c0 -68 17 -82 22 -17 l3 42 25 -42 c14 -25 33 -43 43 -43
14 0 17 10 17 61 0 44 -3 60 -12 57 -7 -3 -15 -20 -18 -39 l-5 -34 -22 38
c-34 57 -53 49 -53 -23z"/>
<path d="M230 190 l0 -170 100 0 100 0 0 170 0 170 -100 0 -100 0 0 -170z"/>
<path d="M730 190 l0 -170 123 0 c236 1 337 28 421 115 44 45 77 113 91 188
l7 37 -106 0 c-105 0 -106 0 -106 -23 0 -40 -43 -108 -80 -128 -22 -12 -55
-19 -92 -19 l-58 0 0 85 0 85 -100 0 -100 0 0 -170z"/>
<path d="M1583 243 c-42 -65 -91 -142 -110 -170 l-34 -53 113 0 113 0 74 121
c44 72 77 117 82 112 5 -5 40 -59 78 -119 l68 -109 116 -3 116 -3 -117 170
-117 170 -153 1 -152 0 -77 -117z"/>
</g>
</svg>
